<svg width="73" height="72" viewBox="0 0 73 72" fill="none" xmlns="http://www.w3.org/2000/svg">
<rect x="0.5" width="72" height="72" rx="10" fill="#00955B"/>
<path opacity="0.4" d="M22.9364 44.6667C23.1748 43.605 22.7414 42.0884 21.9831 41.33L16.7181 36.065C15.0714 34.4184 14.4214 32.6634 14.8981 31.1467C15.3964 29.63 16.9348 28.59 19.2314 28.2L25.9914 27.0734C26.9664 26.9 28.1581 26.0334 28.6131 25.145L32.3398 17.67C33.4231 15.525 34.8964 14.3334 36.4998 14.3334C38.1031 14.3334 39.5764 15.525 40.6598 17.67L44.3864 25.145C44.6681 25.7084 45.2531 26.25 45.8814 26.6184L22.5464 49.9534C22.2431 50.2567 21.7231 49.975 21.8098 49.5417L22.9364 44.6667Z" fill="white"/>
<path d="M51.0169 41.33C50.2369 42.11 49.8036 43.605 50.0636 44.6666L51.5586 51.1883C52.1869 53.8966 51.7969 55.9333 50.4536 56.9083C49.9119 57.2983 49.2619 57.4933 48.5036 57.4933C47.3986 57.4933 46.0986 57.0816 44.6686 56.2366L38.3202 52.4666C37.3236 51.8816 35.6769 51.8816 34.6802 52.4666L28.3319 56.2366C25.9269 57.645 23.8686 57.8833 22.5469 56.9083C22.0486 56.54 21.6802 56.0416 21.4419 55.3916L47.7886 29.045C48.7852 28.0483 50.1936 27.5933 51.5586 27.8316L53.7469 28.2C56.0436 28.59 57.5819 29.63 58.0802 31.1466C58.5569 32.6633 57.9069 34.4183 56.2602 36.065L51.0169 41.33Z" fill="white"/>
</svg>
